PathFileType	4	(X/Y/Z)	c:/Users/goper/Files/vsCode/490R/osim_files/C17/C17_SSWS_04.trc
DataRate	CameraRate	NumFrames	NumMarkers	Units                	OrigDataRate	OrigDataStartFrame	OrigNumFrames
250.00	250.00	10	36	mm	250.0	1219	1949
                Frame#	Time	LPSIS			LASIS			LTH1			LTH2			LTH3			LTH4			LLFE			LMFE			LSH1			LSH2			LSH3			LSH4			LLMAL			LMMAL			LCAL			LMTP5			LTOE			LMTP1			RPSIS			RASIS			RTH1			RTH2			RTH3			RTH4			RLFE			RMFE			RSH1			RSH2			RSH3			RSH4			RLMAL			RMMAL			RCAL			RMTP1			RTOE			RMTP5		
		X1	Y1	Z1	X2	Y2	Z2	X3	Y3	Z3	X4	Y4	Z4	X5	Y5	Z5	X6	Y6	Z6	X7	Y7	Z7	X8	Y8	Z8	X9	Y9	Z9	X10	Y10	Z10	X11	Y11	Z11	X12	Y12	Z12	X13	Y13	Z13	X14	Y14	Z14	X15	Y15	Z15	X16	Y16	Z16	X17	Y17	Z17	X18	Y18	Z18	X19	Y19	Z19	X20	Y20	Z20	X21	Y21	Z21	X22	Y22	Z22	X23	Y23	Z23	X24	Y24	Z24	X25	Y25	Z25	X26	Y26	Z26	X27	Y27	Z27	X28	Y28	Z28	X29	Y29	Z29	X30	Y30	Z30	X31	Y31	Z31	X32	Y32	Z32	X33	Y33	Z33	X34	Y34	Z34	X35	Y35	Z35	X36	Y36	Z36

1219	4.87200	-2270.48340	1045.15234	206.89047	-2458.02783	995.44360	326.66385	-2284.89478	707.03156	346.66656	-2280.03613	664.28662	339.45224	-2345.56763	698.68359	352.24988	-2334.24146	654.45612	344.21661	-2231.17578	501.93878	316.92145	-2240.98755	501.85159	194.82599	-2097.92212	303.61105	311.48886	-2067.54663	273.16953	304.28943	-2049.37549	343.19330	310.64816	-2025.82422	306.56241	304.03381	-1955.16296	175.52872	281.14011	-1975.92761	181.53767	195.60898	-1870.96619	183.47595	233.25517	-2014.97388	54.14870	289.23047	-2066.73022	66.60825	221.43193	-2049.48535	52.92047	172.16652	-2277.44873	1041.34973	134.25052	-2468.59351	1016.55096	56.37870	-2513.11963	736.52875	5.49634	-2533.45093	694.56989	13.72092	-2566.85278	759.05823	18.12547	-2580.67261	713.56946	20.58617	-2649.82324	510.77795	44.75827	-2615.32251	513.08997	165.57210	-2635.96265	301.28586	44.04897	-2651.76904	259.35681	60.95795	-2669.33325	302.31656	57.66389	-2708.34570	279.62109	60.54342	-2702.26074	101.04025	92.36191	-2719.27100	124.91589	180.25215	-2639.95752	54.84563	138.21944	-2867.59351	95.72421	192.08051	-2879.52441	125.66435	147.70174	-2834.66675	72.70445	82.06195
1220	4.87600	-2277.43286	1045.37805	206.76543	-2463.70190	995.10944	326.41034	-2294.31934	707.02045	345.34909	-2288.59937	663.46875	339.55066	-2353.85205	698.18158	352.38376	-2342.85034	653.83539	344.52988	-2240.76880	501.07056	317.76025	-2250.08496	500.75299	194.95366	-2104.52515	304.66824	312.28714	-2073.75684	274.75089	305.03098	-2056.56201	344.98386	311.19608	-2032.56372	308.70425	304.62997	-1959.83643	178.50783	281.98090	-1980.89111	184.23775	196.49599	-1876.01794	188.95702	233.65976	-2016.30054	55.01691	289.34854	-2067.09912	66.78553	221.50719	-2050.23193	53.29964	172.24017	-2284.27393	1041.46863	133.84897	-2473.57397	1015.86066	56.67229	-2519.35303	737.16528	5.12539	-2539.83594	695.27222	13.36005	-2573.14233	759.82806	17.26717	-2587.10669	714.32715	19.94439	-2661.19849	513.55060	44.26781	-2620.86401	512.95551	164.72189	-2641.01074	302.04813	42.81940	-2656.27808	259.91229	59.94323	-2673.47559	301.68182	56.72078	-2712.15039	278.58377	61.12208	-2703.18604	100.88545	92.14658	-2720.50000	124.85143	179.81525	-2639.54248	55.83033	137.54102	-2869.23804	93.37312	190.69748	-2881.55054	122.87762	146.01308	-2835.31836	70.33794	81.04395
1221	4.88000	-2284.29272	1045.65247	206.74181	-2470.53638	995.08490	326.33920	-2302.89160	706.19751	345.31390	-2297.28735	662.54175	339.68521	-2362.43579	697.70178	352.55188	-2351.62329	653.24316	344.88211	-2249.96631	500.00201	318.48514	-2260.30518	499.45285	196.38696	-2111.58130	305.83240	313.11737	-2080.22900	276.32767	305.88062	-2064.18652	346.77649	311.85623	-2039.61145	310.87155	305.36743	-1964.79517	181.52887	282.94852	-1986.11597	186.93700	197.40152	-1881.26514	194.83955	234.22104	-2017.58459	55.95459	289.49457	-2067.42944	66.97560	221.60033	-2051.63647	54.16816	172.86893	-2291.03320	1041.79602	133.48586	-2480.28198	1016.09814	56.61375	-2525.86963	737.93854	4.76653	-2546.27686	696.16931	13.11041	-2579.58569	760.79456	16.42645	-2593.75049	715.29645	19.41901	-2664.28784	512.42114	44.82513	-2626.42529	512.85352	163.81110	-2645.82910	302.58841	41.57625	-2660.20850	260.27206	59.17806	-2678.26685	301.57010	55.68459	-2715.85400	277.59753	61.61005	-2704.01611	100.69891	91.87450	-2722.52197	124.45683	179.61903	-2640.08057	56.36010	137.69348	-2870.98584	91.38604	189.40770	-2883.38525	120.17190	144.54240	-2836.07886	67.79686	80.75742
1222	4.88400	-2291.42871	1045.83093	206.29974	-2477.21313	994.78809	326.53967	-2311.50342	705.27460	345.26572	-2306.27881	661.46118	339.90363	-2371.18701	697.38104	352.83813	-2360.58228	652.61322	345.25427	-2259.83154	498.93668	319.35919	-2269.93140	498.17200	196.63972	-2118.87549	306.94882	314.05295	-2087.09033	277.89874	306.79001	-2072.05493	348.66730	312.52774	-2046.96228	313.04071	306.12057	-1970.11938	184.62839	283.89816	-1991.82922	189.63739	198.44527	-1887.38977	200.57841	234.85754	-2019.06458	56.99566	289.67068	-2067.98657	67.29659	221.71117	-2051.99194	54.52797	172.36208	-2298.01221	1042.16711	133.33093	-2488.70947	1017.08063	56.34330	-2532.49878	738.90741	4.22360	-2553.28394	697.20020	12.73647	-2586.09766	761.95477	15.79018	-2600.48169	716.45953	18.97531	-2671.72485	513.17798	44.79028	-2632.13013	513.10480	162.97615	-2650.37036	302.91623	40.21385	-2666.55518	261.29871	56.66704	-2683.81689	302.04282	54.60133	-2719.45947	276.66812	62.00066	-2704.90137	100.48702	91.67799	-2724.28320	124.26832	179.30022	-2640.68115	56.94633	137.91170	-2872.30835	89.09177	188.49884	-2885.01147	117.39977	143.36440	-2836.67993	65.48860	80.04994
1223	4.88800	-2298.25171	1046.33997	206.85143	-2484.22290	995.23737	326.06372	-2320.18066	704.32770	345.34500	-2315.37573	660.47046	340.21921	-2379.73315	696.74023	352.89734	-2369.84351	652.25110	345.62503	-2269.92822	497.84064	320.18777	-2280.62500	496.66931	198.06966	-2128.27197	306.29730	313.49994	-2094.01074	279.70029	307.45886	-2080.15674	350.52472	313.22876	-2054.71924	315.24152	306.89630	-1975.76465	187.73364	284.96741	-1997.82568	192.33099	199.56978	-1893.88623	206.46672	235.61818	-2020.56958	58.15071	289.90463	-2068.72412	67.68828	221.80899	-2053.78882	55.65372	173.13486	-2304.88110	1042.57458	133.22606	-2493.51562	1016.80957	56.40171	-2539.27441	739.97949	3.67112	-2560.19775	698.38312	12.15247	-2592.79712	763.24994	15.32300	-2607.35010	717.83868	18.59849	-2677.73169	513.83093	44.05751	-2638.06323	513.59888	162.22899	-2654.61768	303.12988	38.87180	-2674.10034	262.60986	53.18595	-2690.23560	303.16147	53.51702	-2722.96899	275.80087	62.28722	-2707.21362	101.73228	90.06850	-2726.08740	124.03062	178.93874	-2642.14551	57.21788	138.64635	-2873.45483	86.78921	187.85115	-2886.68970	114.71020	142.63481	-2837.36621	63.22159	79.60141
1224	4.89200	-2304.57861	1047.22754	208.49063	-2491.05859	995.41138	325.81885	-2328.99194	703.32556	345.33344	-2324.48706	659.30652	340.48282	-2388.81958	696.33307	353.22156	-2378.92114	651.33600	346.12195	-2280.29492	496.72415	321.07425	-2290.90161	495.12430	198.38721	-2135.99756	307.58710	314.57526	-2101.50220	281.33475	308.54575	-2089.01709	352.34167	313.88318	-2062.68628	317.44312	307.79297	-1981.78650	190.86441	286.11475	-2004.02380	195.05403	200.75198	-1900.80615	212.54144	236.45766	-2022.17163	59.48835	290.14545	-2069.78052	68.23851	222.00330	-2054.37573	56.36095	172.67790	-2311.59839	1043.17615	133.25072	-2501.92798	1018.06415	56.03457	-2546.22949	741.01227	3.05797	-2566.74268	699.50464	11.36176	-2599.52856	764.61316	15.01148	-2614.24341	719.22351	18.26128	-2683.47437	513.75647	43.65215	-2644.03247	514.54486	161.57133	-2658.49463	303.19391	37.48808	-2680.22095	263.39130	50.46057	-2697.63257	304.98746	52.47769	-2726.38574	275.00134	62.46306	-2708.13232	101.32458	89.83709	-2727.78760	123.81511	178.68579	-2641.87573	58.06163	137.96776	-2874.81421	84.61477	187.51213	-2888.26758	112.08517	142.25656	-2838.05273	61.09299	79.40585
1225	4.89600	-2311.84863	1047.29077	207.02615	-2498.88843	995.99164	325.65790	-2336.49341	701.04968	346.54819	-2333.79688	658.13501	340.84064	-2397.48657	695.66370	353.31360	-2388.22095	650.61371	346.51199	-2290.82812	495.54367	321.87543	-2302.16821	493.48383	199.78102	-2144.10059	308.83472	315.75198	-2109.07983	283.05188	309.73648	-2097.41870	354.26535	314.71988	-2070.97510	319.71124	308.63004	-1988.08081	194.10641	287.27292	-2010.95508	197.84407	202.34573	-1908.24536	218.71347	237.45862	-2023.84436	60.97225	290.49823	-2070.93433	68.87537	222.24487	-2056.58789	57.96149	173.48466	-2318.12671	1043.76123	133.36816	-2506.65161	1018.10907	55.93726	-2553.00342	741.95801	2.12727	-2573.28467	700.65637	10.48775	-2606.27588	765.92877	14.86860	-2621.13599	720.61615	17.88758	-2689.32080	513.84125	42.94508	-2650.13770	516.03577	161.14177	-2661.86768	303.14084	36.24229	-2683.55713	263.23743	49.41109	-2706.11792	307.58224	51.52934	-2729.71240	274.27509	62.52150	-2708.98853	101.02004	89.77961	-2729.22778	123.63925	178.55743	-2643.12817	58.39241	138.66769	-2875.59351	82.12923	187.56934	-2889.76270	109.51047	142.30705	-2838.82983	59.46479	79.30466
1226	4.90000	-2318.45581	1047.79688	207.15468	-2504.11865	995.35614	325.61127	-2346.87451	701.06549	345.61438	-2342.56543	656.13068	340.20291	-2406.80591	695.26392	353.73309	-2397.29834	649.79327	347.63797	-2301.54980	494.27625	322.60428	-2313.14917	491.58762	199.98209	-2152.46484	310.15210	316.92612	-2117.25317	284.63892	310.89371	-2106.60059	356.21771	315.45062	-2079.60205	322.03268	309.53122	-1994.82446	197.38026	288.54230	-2017.79590	200.63162	203.61708	-1916.09180	225.05042	238.74078	-2025.73364	62.65658	290.87329	-2072.70312	69.70983	222.65343	-2058.17798	59.30681	173.64374	-2324.82520	1044.35327	133.58427	-2511.72754	1018.37018	56.11057	-2560.02173	742.15527	-0.77878	-2580.17090	701.64258	9.67644	-2613.30371	766.66864	14.53642	-2627.71533	721.20917	17.10049	-2694.92285	513.84393	42.23782	-2656.06616	517.92828	160.81117	-2665.02417	302.99704	34.93652	-2686.76025	263.05374	48.43092	-2715.80151	311.00726	50.71800	-2732.95142	273.62756	62.45585	-2709.86646	100.74419	89.88364	-2730.39404	123.40983	178.56345	-2643.56836	58.82848	138.70647	-2876.55908	79.96738	187.95418	-2891.07617	107.18693	142.63228	-2839.70288	57.76877	79.54302
1227	4.90400	-2324.95801	1048.36035	207.42937	-2510.80444	995.95258	324.91174	-2354.54736	698.51709	346.97647	-2352.02246	654.78162	340.53888	-2415.80591	694.62714	353.90155	-2406.84839	649.07782	348.05884	-2312.55493	493.08365	323.28491	-2324.21436	489.72531	200.60199	-2161.10132	311.52914	318.09018	-2125.36353	286.53400	312.14700	-2116.04053	358.19598	316.26804	-2088.50415	324.41693	310.39462	-2001.92090	200.70691	289.84781	-2024.92285	203.58763	205.05251	-1924.30542	231.49223	240.07564	-2027.79968	64.71299	291.31763	-2074.78882	70.68491	223.10721	-2058.59961	61.05544	173.20070	-2331.17798	1045.17334	133.79214	-2518.28296	1019.24243	56.40738	-2566.77100	743.06830	-1.50895	-2586.94336	702.55988	8.85954	-2619.97583	767.61615	14.25124	-2634.47559	722.25916	16.49934	-2700.61670	514.07410	41.47528	-2661.96558	520.12830	160.69260	-2672.60864	302.71872	32.14309	-2689.85986	262.93625	47.62967	-2726.79297	315.32401	50.08969	-2736.10547	273.06430	62.25945	-2710.56104	100.58881	90.10723	-2731.37915	123.17743	178.62129	-2643.90845	59.29042	138.67590	-2877.07153	77.89023	188.38644	-2892.22290	105.10235	143.21205	-2840.54614	56.44444	79.88904
1228	4.90800	-2331.54517	1048.90002	207.41441	-2517.27612	995.96881	324.86481	-2363.93726	697.49921	347.08136	-2361.59692	653.39172	340.90829	-2424.85596	693.84839	353.98807	-2416.82642	648.38538	347.71170	-2323.96387	491.96396	323.91293	-2336.36035	487.62631	201.75995	-2170.03931	312.98343	319.23138	-2134.01611	288.44553	313.35629	-2126.27344	360.27921	315.63394	-2097.73389	326.76956	311.35620	-2009.43933	204.19373	291.18192	-2032.45813	206.53349	206.47752	-1933.05957	238.12703	241.68839	-2030.21667	66.92916	291.80344	-2077.27954	71.90485	223.69981	-2061.29590	63.24670	174.15027	-2337.56592	1045.90503	134.02942	-2525.50342	1020.41388	56.72536	-2573.47925	743.86536	-2.26177	-2593.52148	703.39618	7.99700	-2626.56982	768.43323	13.74305	-2641.07812	723.10828	15.79175	-2705.55737	513.53705	41.14702	-2667.66260	522.28912	160.64961	-2675.96729	302.17859	32.24324	-2692.87646	262.91534	46.91306	-2735.86865	318.60059	49.91279	-2739.05811	272.53394	62.02033	-2712.31860	100.28896	90.67459	-2732.10645	122.98861	178.89760	-2643.41382	59.92997	138.01823	-2877.73486	76.16784	188.99622	-2893.04980	103.28568	143.99892	-2841.24292	55.49696	80.22211
